<?xml version="1.0" standalone="no"?>
<!DOCTYPE svg PUBLIC "-//W3C//DTD SVG 20010904//EN"
 "http://www.w3.org/TR/2001/REC-SVG-20010904/DTD/svg10.dtd">
<svg version="1.0" xmlns="http://www.w3.org/2000/svg"
 width="1208.000000pt" height="1208.000000pt" viewBox="0 0 1208.000000 1208.000000"
 preserveAspectRatio="xMidYMid meet">
<metadata>
Created by potrace 1.14, written by Peter Selinger 2001-2017
</metadata>
<g transform="translate(0.000000,1208.000000) scale(0.100000,-0.100000)"
fill="#000000" stroke="none">
<path d="M5848 11165 c-2 -1 -52 -6 -113 -9 -60 -4 -123 -9 -140 -11 -16 -2
-57 -7 -90 -10 -167 -17 -445 -69 -645 -121 -489 -128 -974 -341 -1390 -612
-101 -65 -316 -217 -330 -232 -5 -4 -89 -72 -116 -92 -7 -5 -22 2 -39 18 -15
14 -82 68 -149 120 -650 509 -1297 618 -1811 303 -266 -163 -493 -454 -620
-794 -37 -98 -90 -296 -99 -365 -2 -19 -10 -69 -17 -110 -14 -84 -19 -499 -7
-620 70 -699 411 -1397 933 -1904 l60 -59 1 -236 c0 -215 5 -337 20 -491 5
-53 7 -67 20 -175 31 -258 96 -553 185 -840 44 -141 161 -446 185 -482 8 -13
12 -23 9 -23 -3 0 40 -91 97 -202 57 -111 104 -206 106 -210 2 -4 -21 -19 -50
-34 -113 -57 -370 -225 -506 -332 -638 -496 -1028 -1099 -1047 -1617 -8 -223
78 -422 251 -584 76 -71 204 -157 299 -201 28 -12 61 -28 75 -35 33 -17 282
-101 357 -121 189 -49 488 -102 703 -124 205 -20 288 -26 475 -35 121 -6 659
-6 770 0 247 12 323 17 355 20 19 1 80 6 135 10 55 4 106 8 115 10 8 1 51 6
95 10 71 6 401 46 495 60 414 62 822 159 1009 241 20 9 47 21 61 26 68 28 189
96 260 146 36 26 89 70 117 98 l53 52 137 0 138 0 65 -62 c176 -168 434 -288
835 -387 66 -16 136 -32 155 -35 19 -3 51 -9 70 -14 30 -8 269 -49 370 -64
213 -31 507 -65 705 -81 39 -3 93 -7 120 -10 49 -4 184 -12 360 -21 121 -5
706 -6 775 0 30 3 111 7 180 11 69 3 139 8 155 10 17 2 57 7 90 10 719 68
1248 244 1512 502 81 80 122 137 168 236 116 246 74 601 -115 962 -181 348
-501 710 -885 999 -60 46 -141 104 -180 129 -38 26 -74 50 -80 55 -5 4 -47 30
-92 57 -46 27 -82 50 -80 51 1 1 55 4 119 8 268 15 457 74 649 202 352 236
566 750 553 1329 -3 132 -7 176 -29 325 -4 25 -18 92 -31 150 -121 522 -414
1027 -787 1355 l-56 50 -47 185 c-188 752 -547 1428 -1079 2030 -157 177 -459
456 -665 612 -712 539 -1574 876 -2440 953 -36 3 -85 8 -110 11 -48 6 -546 14
-552 9z"/>
</g>
</svg>
